<?xml version="1.0" encoding="UTF-8"?>
<svg id="Layer_2" data-name="Layer 2" xmlns="http://www.w3.org/2000/svg" viewBox="0 0 42.82 40.25">
  <defs>
    <style>
      .cls-1 {
        fill: #d3d3d3;
      }
    </style>
  </defs>
  <g id="Layer_1_copy" data-name="Layer 1 copy">
    <g id="Group_343" data-name="Group 343">
      <path id="Path_69" data-name="Path 69" class="cls-1" d="M0,.95C.3,.3,.98-.08,1.69,.01c13.17,.02,26.34,.02,39.51,.01,.25,0,.5,.02,.74,.07,.64,.18,1.02,.85,.83,1.5-.01,.04-.02,.07-.03,.1-.06,.16-.14,.31-.22,.45-1.23,2.12-2.47,4.24-3.7,6.37-.1,.21-.32,.34-.56,.32-11.23,0-22.47,0-33.7,0-.22,.03-.43-.08-.54-.28C2.78,6.39,1.52,4.24,.26,2.08c-.09-.15-.18-.31-.26-.46V.95Z"/>
      <path id="Path_70" data-name="Path 70" class="cls-1" d="M5.67,11.36h31.49c-.07,.14-.12,.25-.18,.35-1.06,1.87-2.13,3.73-3.18,5.6-.1,.21-.32,.34-.56,.32-7.89,0-15.77,0-23.66,0-.21,0-.38,0-.51-.24-1.09-1.93-2.19-3.85-3.29-5.78-.04-.07-.06-.15-.11-.25Z"/>
      <path id="Path_71" data-name="Path 71" class="cls-1" d="M27.68,28.97c0,3.36,0,6.68,0,10,.03,.68-.5,1.25-1.18,1.27-.03,0-.06,0-.09,0-3.33,0-6.66,0-9.99,0-.68,.03-1.25-.5-1.28-1.17,0-.03,0-.06,0-.09-.01-3.29,0-6.59,0-9.88,0-.04,.01-.09,.03-.13h12.51Z"/>
      <path id="Path_72" data-name="Path 72" class="cls-1" d="M32.14,20.16c-.07,.14-.12,.25-.18,.35-1.06,1.86-2.13,3.73-3.18,5.6-.09,.22-.32,.35-.55,.32-4.54,0-9.08,0-13.62-.01-.18,0-.35-.07-.47-.2-1.14-1.95-2.25-3.92-3.37-5.88-.03-.06-.05-.12-.07-.18h21.44Z"/>
    </g>
  </g>
</svg>